# xmcd
#
# Track frame offsets:
#	150
#	18053
#	34538
#	51191
#
# Disc length: 946 seconds
#
# Revision: 0
# Processed by: cddbd v1.5.2PL0 Copyright (c) Steve Scherf et al.
# Submitted via: audiograbber 1.83.01
#
DISCID=2203b004
DTITLE=Νομικός Νίκος - 2003-Κουβέντες της Ανάγκης (Σε 3 τραγούδια των Πύξ Λαξ) 
DTITLE=single 
DYEAR=2003
DGENRE=
TTITLE0=Κουβέντες Της Ανάγκης
TTITLE1=Δεν Γυρίζω Πίσω 
TTITLE2=Θα Ξαναγεννηθώ 
TTITLE3=Δεν Γυρίζω Πίσω (τρελή μίξη)
EXTD=
EXTT0=
EXTT1=
EXTT2=
EXTT3=
PLAYORDER=
